<svg width="24" height="24" viewBox="0 0 24 24" fill="none" xmlns="http://www.w3.org/2000/svg">
<rect width="24" height="24" rx="12" fill="#118A6E"/>
<path fill-rule="evenodd" clip-rule="evenodd" d="M12.5821 11.2079V7.8371C13.825 7.9662 14.6986 8.55629 14.8249 9.57535H16.8443C16.7668 7.74053 15.0093 6.52783 12.5821 6.36569V5H11.4851V6.36569C9.03834 6.51969 7.29119 7.71563 7.29119 9.52656C7.29119 11.1672 8.62139 12.0892 11.0871 12.5659L11.4851 12.6468V16.171C9.92229 16.0338 9.18424 15.3385 9.00965 14.3926H7C7.06715 16.3327 9.01941 17.4884 11.4851 17.6424V19H12.5821V17.6424C15.0581 17.4966 17 16.3733 17 14.3926C17 12.6712 15.602 11.798 13.0485 11.305L12.5821 11.2079ZM14.9415 14.5543C14.9415 13.7217 14.3976 13.2287 12.5821 12.8567V16.1792C14.2425 16.074 14.9415 15.4193 14.9415 14.5543ZM9.34906 9.38882C9.34906 10.1248 9.93205 10.6661 11.4851 10.9898L11.4857 7.8371C10.0871 7.98246 9.34906 8.65286 9.34906 9.38882Z" fill="#F6F6F6"/>
</svg>
