<svg viewBox="0 0 159 40" fill="none" xmlns="http://www.w3.org/2000/svg">
<path d="M9.04785 34.5533L18.9744 29.2767L28.3738 32.0852C23.8937 36.0001 17.5688 37.3618 11.7711 35.6597C10.8926 35.4044 9.9263 34.9788 9.04785 34.5533Z" fill="#60C2A9"/>
<path d="M12.0349 17.9575L17.13 27.0639L10.3659 25.1065L6.85205 18.7235C8.52111 18.2128 10.278 17.9575 12.0349 17.9575Z" fill="#60C2A9"/>
<path d="M16.6025 28.6807L9.92629 26.7233L3.33789 30.2127C4.47988 31.4893 5.79756 32.6808 7.20308 33.6169L16.6025 28.6807Z" fill="#118A6E"/>
<path d="M5.1831 19.4044L7.99415 24.4256L0.439453 22.298C1.84498 21.0214 3.42619 20.0852 5.1831 19.4044Z" fill="#118A6E"/>
<path d="M7.46685 26.0426L2.28398 28.766C1.22983 27.3192 0.439226 25.6171 0 23.8298L7.46685 26.0426Z" fill="#60C2A9"/>
<path d="M28.1104 28.2552C22.4005 27.0637 17.3933 23.3191 14.9336 18.1276C14.6701 18.0424 14.4066 18.0424 14.0552 18.0424L19.5016 27.6595L28.901 30.3829C28.7253 29.702 28.4618 28.9361 28.1104 28.2552Z" fill="#118A6E"/>
<path d="M50.8628 16.9362L40.1457 20.4256L35.7534 28.9362C41.7269 28.4256 47.0855 24.8511 49.8087 19.6596C50.2479 18.8085 50.5993 17.8724 50.8628 16.9362Z" fill="#60C2A9"/>
<path d="M51.3898 14.9787L41.2876 18.2128L44.45 12.1702L51.4776 9.87234C51.6533 11.5745 51.6533 13.2766 51.3898 14.9787Z" fill="#118A6E"/>
<path d="M39.7063 17.5319L42.8687 11.4893L40.4969 4.68078C39.0035 5.53185 37.598 6.55313 36.3682 7.82973L39.7063 17.5319Z" fill="#60C2A9"/>
<path d="M51.126 8.25545L45.5039 10.0427L49.0177 3.23417C49.984 4.76609 50.6868 6.46822 51.126 8.25545Z" fill="#60C2A9"/>
<path d="M33.1177 26.2128C36.1044 21.3618 36.6315 15.2341 34.5232 9.95748C34.6989 9.70216 34.8746 9.53195 35.0503 9.27663L38.6519 19.6596L34.2597 28.1703C33.8204 27.5745 33.3812 26.8937 33.1177 26.2128Z" fill="#118A6E"/>
<path d="M43.9233 9.27651L41.9907 3.82969C43.7476 3.14883 45.5045 2.63819 47.4371 2.46798L43.9233 9.27651Z" fill="#118A6E"/>
<path d="M31.449 7.40435L27.3203 17.6171L31.2734 26.3831C34.6993 21.6171 35.4021 15.4044 32.9424 10.0427C32.4153 9.10649 31.9761 8.25542 31.449 7.40435Z" fill="#75CCEB"/>
<path d="M15.1094 14.298L25.6508 18.298L29.6039 27.0639C23.6304 26.2129 18.5353 22.4682 16.0757 17.1065C15.6364 16.1703 15.3729 15.2341 15.1094 14.298Z" fill="#0064B3"/>
<path d="M30.1313 5.78733L26.2661 15.4044L23.4551 9.19159L26.1783 2.46817C27.6717 3.40435 28.9893 4.51073 30.1313 5.78733Z" fill="#0064B3"/>
<path d="M24.6845 16.0853L21.8735 9.87252L14.9337 7.23422C14.5823 8.93635 14.5823 10.6385 14.758 12.3406L24.6845 16.0853Z" fill="#75CCEB"/>
<path d="M24.6847 1.61702L22.4886 6.97874L19.3262 0C21.2588 0.25532 23.0157 0.851065 24.6847 1.61702Z" fill="#75CCEB"/>
<path d="M20.9073 7.65951L15.373 5.53185C15.9001 3.82972 16.6907 2.21269 17.7449 0.680773L20.9073 7.65951Z" fill="#0064B3"/>
<path d="M31.5362 33.5318V37.4467H33.7323V33.5318H34.6108V37.4467H35.05L34.9622 39.4893H34.3473V38.0425H30.7456V33.5318H31.5362Z" fill="#118A6E"/>
<path d="M36.4556 35.9149C36.4556 37.0213 37.2463 37.4469 38.0369 37.4469C38.6518 37.4469 39.0032 37.3618 39.3545 37.1915L39.5302 37.7873C39.2667 37.9575 38.7396 38.0426 37.949 38.0426C36.5435 38.0426 35.665 37.1064 35.665 35.7447C35.665 34.383 36.4556 33.2766 37.8612 33.2766C39.3545 33.2766 39.7938 34.5532 39.7938 35.4043C39.7938 35.5745 39.7938 35.7447 39.7938 35.8298H36.4556V35.9149ZM38.9153 35.3192C38.9153 34.8086 38.6518 33.9575 37.7733 33.9575C36.8949 33.9575 36.5435 34.7235 36.4556 35.3192H38.9153Z" fill="#118A6E"/>
<path d="M41.6387 33.5318V35.3191H43.8348V33.5318H44.7133V38.0425H43.8348V35.9999H41.6387V38.0425H40.7603V33.5318H41.6387Z" fill="#118A6E"/>
<path d="M49.1934 33.5322V34.2131H47.7V38.0429H46.8216V34.128H45.5039V33.4471H49.1934V33.5322Z" fill="#118A6E"/>
<path d="M49.9839 34.979C49.9839 34.3833 49.9839 33.9577 49.9839 33.5322H50.7745V34.2982C51.1259 33.7875 51.6529 33.4471 52.4436 33.4471C53.5855 33.4471 54.464 34.3833 54.464 35.745C54.464 37.362 53.4099 38.2131 52.3557 38.2131C51.7408 38.2131 51.2137 37.9577 50.9502 37.5322V40.0003H50.0717V34.979H49.9839ZM50.7745 36.2556C50.7745 36.3407 50.7745 36.5109 50.7745 36.596C50.9502 37.1918 51.4773 37.5322 52.0922 37.5322C52.9706 37.5322 53.4977 36.8514 53.4977 35.745C53.4977 34.8088 52.9706 34.0428 52.0922 34.0428C51.4773 34.0428 50.9502 34.4684 50.7745 35.0641C50.7745 35.1492 50.6867 35.3194 50.6867 35.4045V36.2556H50.7745Z" fill="#118A6E"/>
<path d="M58.3286 33.5318V35.4893H58.5043L60.2612 33.5318H61.3154L59.2949 35.5744C60.0855 35.6595 60.5248 36.1702 60.8762 36.9361C60.964 37.2765 61.1397 37.7021 61.4032 38.0425H60.5248C60.4369 37.8723 60.2612 37.5319 60.0855 37.1063C59.7342 36.3404 59.2949 35.9999 58.5043 35.9999H58.3286V38.0425H57.4502V33.5318H58.3286Z" fill="#118A6E"/>
<path d="M62.1943 34.979C62.1943 34.3833 62.1943 33.9577 62.1943 33.5322H62.9849V34.2982C63.3363 33.7875 63.8634 33.4471 64.654 33.4471C65.796 33.4471 66.6744 34.3833 66.6744 35.745C66.6744 37.362 65.6203 38.2131 64.5662 38.2131C63.9512 38.2131 63.4242 37.9577 63.1606 37.5322V40.0003H62.2822V34.979H62.1943ZM62.9849 36.2556C62.9849 36.3407 62.9849 36.5109 62.9849 36.596C63.1606 37.1918 63.6877 37.5322 64.3026 37.5322C65.1811 37.5322 65.7081 36.8514 65.7081 35.745C65.7081 34.8088 65.1811 34.0428 64.3026 34.0428C63.6877 34.0428 63.1606 34.4684 62.9849 35.0641C62.9849 35.1492 62.8971 35.3194 62.8971 35.4045V36.2556H62.9849Z" fill="#118A6E"/>
<path d="M70.2763 38.0429L70.1885 37.4471C69.9249 37.7875 69.3979 38.128 68.783 38.128C67.8167 38.128 67.3774 37.4471 67.3774 36.8514C67.3774 35.745 68.3437 35.1492 70.1885 35.1492V35.0641C70.1885 34.7237 70.1006 34.0428 69.1343 34.0428C68.6951 34.0428 68.2559 34.2131 67.9045 34.3833L67.7288 33.8726C68.0802 33.6173 68.6951 33.4471 69.2222 33.4471C70.6277 33.4471 70.9791 34.3833 70.9791 35.3194V37.0216C70.9791 37.4471 70.9791 37.7875 71.0669 38.128H70.2763V38.0429ZM70.1006 35.745C69.1343 35.745 68.0802 35.9152 68.0802 36.7663C68.0802 37.2769 68.4316 37.5322 68.8708 37.5322C69.4857 37.5322 69.8371 37.1918 70.0128 36.7663C70.0128 36.6811 70.1006 36.596 70.1006 36.5109V35.745Z" fill="#118A6E"/>
<path d="M75.6343 37.8726C75.3708 37.9577 74.9316 38.128 74.3167 38.128C72.9111 38.128 71.9448 37.1918 71.9448 35.8301C71.9448 34.4684 72.9111 33.4471 74.4923 33.4471C75.0194 33.4471 75.4586 33.5322 75.6343 33.7024L75.4586 34.2982C75.283 34.2131 74.9316 34.0428 74.4923 34.0428C73.4382 34.0428 72.8233 34.8088 72.8233 35.745C72.8233 36.7663 73.526 37.4471 74.4045 37.4471C74.8437 37.4471 75.1951 37.362 75.4586 37.1918L75.6343 37.8726Z" fill="#118A6E"/>
<path d="M80.8174 35.745C80.8174 37.4471 79.5876 38.128 78.4456 38.128C77.2158 38.128 76.1616 37.1918 76.1616 35.8301C76.1616 34.2982 77.2158 33.4471 78.4456 33.4471C79.939 33.4471 80.8174 34.3833 80.8174 35.745ZM77.1279 35.8301C77.1279 36.8514 77.7428 37.5322 78.5334 37.5322C79.324 37.5322 79.939 36.7663 79.939 35.745C79.939 34.979 79.4997 34.0428 78.5334 34.0428C77.5671 34.0428 77.1279 34.979 77.1279 35.8301Z" fill="#118A6E"/>
<path d="M84.9467 33.5322V34.2131H83.4534V38.0429H82.5749V34.128H81.0815V33.4471H84.9467V33.5322Z" fill="#118A6E"/>
<path d="M86.5279 33.5322V35.0641C86.7036 35.0641 86.9671 34.979 87.3185 34.979C88.2848 34.979 89.339 35.4046 89.339 36.5109C89.339 37.0216 89.1633 37.2769 88.8119 37.5322C88.2848 37.9577 87.582 38.0429 86.9671 38.0429C86.5279 38.0429 86.0887 38.0429 85.7373 37.9577V33.4471H86.5279V33.5322ZM86.5279 37.5322C86.7036 37.5322 86.8793 37.5322 87.1428 37.5322C87.7577 37.5322 88.4605 37.2769 88.4605 36.596C88.4605 35.8301 87.7577 35.6599 87.1428 35.6599C86.8793 35.6599 86.7036 35.6599 86.5279 35.745V37.5322ZM90.7445 33.5322V38.0429H89.866V33.5322H90.7445Z" fill="#118A6E"/>
<path d="M94.9605 33.5322V35.4046C94.9605 36.0854 94.9605 36.596 94.8727 37.1918C95.1362 36.6811 95.3119 36.3407 95.6633 35.8301L97.1567 33.4471H98.123V38.0429H97.3323V36.0854C97.3323 35.3194 97.3323 34.979 97.4202 34.2131C97.1567 34.8088 96.8931 35.1492 96.6296 35.6599C96.1904 36.3407 95.6633 37.1918 95.1362 38.0429H94.1699V33.5322H94.9605Z" fill="#118A6E"/>
<path d="M102.428 33.5318V35.4893H102.603L104.36 33.5318H105.414L103.394 35.5744C104.185 35.6595 104.624 36.1702 104.975 36.9361C105.063 37.2765 105.239 37.7021 105.502 38.0425H104.624C104.536 37.8723 104.36 37.5319 104.185 37.1063C103.833 36.3404 103.394 35.9999 102.603 35.9999H102.428V38.0425H101.549V33.5318H102.428Z" fill="#118A6E"/>
<path d="M110.422 35.745C110.422 37.4471 109.192 38.128 108.05 38.128C106.82 38.128 105.766 37.1918 105.766 35.8301C105.766 34.2982 106.82 33.4471 108.05 33.4471C109.456 33.4471 110.422 34.3833 110.422 35.745ZM106.645 35.8301C106.645 36.8514 107.259 37.5322 108.05 37.5322C108.841 37.5322 109.456 36.7663 109.456 35.745C109.456 34.979 109.016 34.0428 108.05 34.0428C107.084 34.0428 106.645 34.979 106.645 35.8301Z" fill="#118A6E"/>
<path d="M114.814 37.8726C114.55 37.9577 114.111 38.128 113.496 38.128C112.091 38.128 111.125 37.1918 111.125 35.8301C111.125 34.4684 112.091 33.4471 113.672 33.4471C114.199 33.4471 114.638 33.5322 114.814 33.7024L114.638 34.2982C114.463 34.2131 114.111 34.0428 113.672 34.0428C112.618 34.0428 112.003 34.8088 112.003 35.745C112.003 36.7663 112.706 37.4471 113.584 37.4471C114.023 37.4471 114.375 37.362 114.638 37.1918L114.814 37.8726Z" fill="#118A6E"/>
<path d="M115.868 33.5318H116.922L117.801 35.8297C117.889 36.1702 118.152 36.6808 118.24 37.1063C118.328 36.7659 118.591 36.085 118.767 35.5744L119.558 33.617H120.612L120.963 38.1276H120.173L120.085 35.9999C120.085 35.4893 119.997 34.8936 119.997 34.3829C119.909 34.8084 119.733 35.1489 119.47 35.8297L118.591 38.1276H117.976L117.186 35.9148C117.01 35.4893 116.834 34.8084 116.747 34.3829C116.747 34.8936 116.659 35.4893 116.659 35.9999L116.571 38.1276H115.78L115.868 33.5318Z" fill="#118A6E"/>
<path d="M122.456 35.9149C122.456 37.0213 123.247 37.4469 124.037 37.4469C124.652 37.4469 125.004 37.3618 125.355 37.1915L125.531 37.7873C125.267 37.9575 124.74 38.0426 123.95 38.0426C122.544 38.0426 121.666 37.1064 121.666 35.7447C121.666 34.383 122.456 33.2766 123.862 33.2766C125.355 33.2766 125.794 34.5532 125.794 35.4043C125.794 35.5745 125.794 35.7447 125.794 35.8298H122.456V35.9149ZM124.916 35.3192C124.916 34.8086 124.652 33.9575 123.774 33.9575C122.895 33.9575 122.544 34.7235 122.456 35.3192H124.916Z" fill="#118A6E"/>
<path d="M129.923 33.5322V34.2131H128.429V38.0429H127.551V34.128H126.058V33.4471H129.923V33.5322Z" fill="#118A6E"/>
<path d="M134.754 35.745C134.754 37.4471 133.525 38.128 132.383 38.128C131.153 38.128 130.099 37.1918 130.099 35.8301C130.099 34.2982 131.153 33.4471 132.383 33.4471C133.876 33.4471 134.754 34.3833 134.754 35.745ZM131.065 35.8301C131.065 36.8514 131.68 37.5322 132.47 37.5322C133.261 37.5322 133.876 36.7663 133.876 35.745C133.876 34.979 133.437 34.0428 132.47 34.0428C131.504 34.0428 131.065 34.979 131.065 35.8301Z" fill="#118A6E"/>
<path d="M139.41 33.5322V38.0429H138.532V34.128H136.951V35.3194C136.951 36.596 136.863 37.4471 136.248 37.7875C135.984 37.9577 135.721 38.0429 135.282 38.0429L135.194 37.362C135.37 37.362 135.545 37.2769 135.633 37.1918C136.072 36.8514 136.16 36.2556 136.16 35.2343V33.4471H139.41V33.5322Z" fill="#118A6E"/>
<path d="M145.032 35.745C145.032 37.4471 143.802 38.128 142.66 38.128C141.431 38.128 140.376 37.1918 140.376 35.8301C140.376 34.2982 141.431 33.4471 142.66 33.4471C144.154 33.4471 145.032 34.3833 145.032 35.745ZM141.343 35.8301C141.343 36.8514 141.958 37.5322 142.748 37.5322C143.539 37.5322 144.154 36.7663 144.154 35.745C144.154 34.979 143.715 34.0428 142.748 34.0428C141.782 34.0428 141.343 34.979 141.343 35.8301Z" fill="#118A6E"/>
<path d="M148.985 33.5318V34.2127H146.965V38.0425H146.086V33.5318H148.985Z" fill="#118A6E"/>
<path d="M150.566 33.5322V35.4046C150.566 36.0854 150.566 36.596 150.479 37.1918C150.742 36.6811 150.918 36.3407 151.269 35.8301L152.763 33.4471H153.729V38.0429H152.938V36.0854C152.938 35.3194 152.938 34.979 153.026 34.2131C152.763 34.8088 152.499 35.1492 152.236 35.6599C151.796 36.3407 151.269 37.1918 150.742 38.0429H149.776V33.5322H150.566Z" fill="#118A6E"/>
<path d="M155.837 33.5322V35.4046C155.837 36.0854 155.837 36.596 155.75 37.1918C156.013 36.6811 156.189 36.3407 156.54 35.8301L158.034 33.4471H159V38.0429H158.209V36.0854C158.209 35.3194 158.209 34.979 158.297 34.2131C158.034 34.8088 157.77 35.1492 157.507 35.6599C157.067 36.3407 156.54 37.1918 156.013 38.0429H155.047V33.5322H155.837Z" fill="#118A6E"/>
<path d="M56.0454 25.3618H56.9239V8.42556H56.0454V7.06385H59.3835L62.3703 24.2554H62.4581L65.4449 7.06385H68.783V8.42556H67.9045V25.3618H68.783V26.7235H66.3233V9.87237H66.2355L63.3366 26.7235H61.404L58.5929 9.87237H58.5051V25.3618H59.3835V26.7235H56.0454V25.3618Z" fill="black"/>
<path d="M70.1006 25.3617H70.979V14.0425H70.1006V12.6808H72.5603V22.5531L76.5133 13.3616V12.6808H78.973V14.0425H78.0945V25.3617H78.973V26.7234H76.5133V16.851H76.4254L72.5603 26.0425V26.7234H70.1006V25.3617Z" fill="black"/>
<path d="M80.3784 25.4468C81.2569 25.4468 81.8718 24.5957 81.8718 23.1489V14.0425H80.9933V12.6808H89.1629V14.0425H88.2845V25.3617H89.1629V26.7234H86.7033V14.0425H83.5409V23.234C83.5409 25.5319 82.1353 26.8936 80.3784 26.8936V25.4468Z" fill="black"/>
<path d="M90.6558 25.4468C91.5342 25.4468 92.1491 24.5957 92.1491 23.1489V14.0425H91.2707V12.6808H99.4403V14.0425H98.5618V25.3617H99.4403V26.7234H96.9806V14.0425H93.8182V23.234C93.8182 25.5319 92.4127 26.8936 90.6558 26.8936V25.4468Z" fill="black"/>
<path d="M103.043 20.1702V23.5745C103.043 24.766 103.922 25.4468 104.888 25.4468C105.942 25.4468 106.733 24.766 106.733 23.5745V22.2128H108.402V23.5745C108.402 25.6171 106.82 26.8085 104.888 26.8085C102.955 26.8085 101.374 25.6171 101.374 23.5745V15.7447C101.374 13.7021 102.955 12.5106 104.888 12.5106C106.82 12.5106 108.402 13.7021 108.402 15.7447V20.1702H103.043ZM103.043 18.8085H106.82V15.7447C106.82 14.4681 105.942 13.8724 104.976 13.8724C103.922 13.8724 103.131 14.4681 103.131 15.7447V18.8085H103.043Z" fill="black"/>
<path d="M115.78 12.6808H119.119V14.0425H118.24V25.3617H119.119V26.7234H116.659V20.1702H112.882V25.3617H113.76V26.7234H110.422V25.3617H111.3V14.0425H110.422V12.6808H112.882V18.8936H116.659V14.0425H115.78V12.6808Z" fill="black"/>
<path d="M120.524 25.3617H121.402V14.0425H120.524V12.6808H122.984V22.5531L126.849 13.3616V12.6808H129.308V14.0425H128.43V25.3617H129.308V26.7234H126.849V16.851H126.761L122.896 26.0425V26.7234H120.436V25.3617H120.524Z" fill="black"/>
<path d="M136.248 12.6808H139.586V14.0425H138.707L135.194 29.7021C134.842 31.3191 133.788 32.3404 132.119 32.3404H131.328V30.9787H132.119C132.91 30.9787 133.349 30.4681 133.612 29.7021L134.315 26.7234H133.788L130.977 14.0425H130.099V12.6808H132.383L134.754 25.2766H134.842L137.038 14.0425H136.248V12.6808Z" fill="black"/>
<path d="M140.289 12.6808H143.539L146.438 24.6808H146.526L149.424 12.6808H152.763V14.0425H151.884V25.3617H152.763V26.7234H150.391V14.6382H150.303L147.492 26.7234H145.559L142.748 14.6382H142.66V25.3617H143.539V26.7234H140.289V25.3617H141.167V14.0425H140.289V12.6808Z" fill="black"/>
</svg>
